<svg width="155" height="193" viewBox="0 0 155 193" fill="none" xmlns="http://www.w3.org/2000/svg">
<g opacity="0.21">
<path d="M37.5548 98.5236C39.1439 94.0842 41.3001 89.8299 42.8492 85.3698C44.443 80.7809 37.0168 73.9456 42.2092 69.2479C50.6868 61.5762 78.4749 85.8942 76.9752 96.1627C75.9878 102.932 67.6522 97.6188 65.4201 96.8435C64.2351 96.432 65.2299 99.4812 64.8003 100.718C62.6033 107.043 60.8795 113.445 59.053 119.772" stroke="#C4C4A4" stroke-width="3" stroke-linecap="round" stroke-linejoin="round"/>
<path d="M43.6161 67.7544C67.485 66.7917 115.744 65.0951 106.109 102.696C104.643 108.415 102.361 119.286 98.4452 123.922C97.8834 124.585 71.3504 119.964 61.1893 119.958" stroke="#C4C4A4" stroke-width="3" stroke-linecap="round" stroke-linejoin="round"/>
<path d="M18.778 89.6662C24.1923 93.7227 29.6798 97.6547 35.5353 101.197C38.5611 103.026 41.823 104.506 44.5669 106.702C48.3239 109.71 55.8159 111.789 58.7164 115.238C59.3074 115.941 58.5049 117.867 58.2633 118.562C58.0159 119.275 57.608 122.555 57.1703 122.919C56.372 123.582 13.6451 102.044 13.7759 99.629C13.8808 97.6691 17.09 92.9227 17.9713 90.7794" stroke="#C4C4A4" stroke-width="3" stroke-linecap="round" stroke-linejoin="round"/>
<path opacity="0.503384" d="M74.609 72.9317C79.7032 75.5137 81.6145 78.9774 82.7847 82.9964" stroke="#C4C4A4" stroke-width="3" stroke-linecap="round" stroke-linejoin="round"/>
<path opacity="0.503384" d="M89.1639 77.4311C91.7429 79.8264 92.0437 82.5322 92.5524 85.2774" stroke="#C4C4A4" stroke-width="3" stroke-linecap="round" stroke-linejoin="round"/>
<path opacity="0.503384" d="M77.9199 100.203C83.4067 100.716 91.5859 102.149 96.9801 102.933" stroke="#C4C4A4" stroke-width="3" stroke-linecap="round" stroke-linejoin="round"/>
<path d="M14.1109 101.384C9.2866 101.103 4.26526 98.8988 3.73289 104.922C3.63922 105.982 1.77628 108.792 2.46134 109.801C3.37734 111.154 8.97032 111.608 10.4219 112.005C18.8131 114.31 39.5435 128.76 47.8431 125.843C48.8912 125.475 49.718 121.903 50.1236 120.895" stroke="#C4C4A4" stroke-width="3" stroke-linecap="round" stroke-linejoin="round"/>
</g>
</svg>
